<svg xmlns="http://www.w3.org/2000/svg" width="2400" height="1350" viewBox="0 0 2400 1350" fill="none">
  <defs>
    <linearGradient id="bg" x1="0" y1="0" x2="1" y2="1">
      <stop offset="0" stop-color="#fbf7f0" />
      <stop offset="1" stop-color="#e7f2ff" />
    </linearGradient>
    <radialGradient id="glow" cx="0" cy="0" r="1" gradientUnits="userSpaceOnUse" gradientTransform="translate(720 320) rotate(90) scale(720)">
      <stop offset="0" stop-color="#ffffff" stop-opacity="0.9" />
      <stop offset="1" stop-color="#ffffff" stop-opacity="0" />
    </radialGradient>
    <radialGradient id="glow2" cx="0" cy="0" r="1" gradientUnits="userSpaceOnUse" gradientTransform="translate(1840 1060) rotate(90) scale(860)">
      <stop offset="0" stop-color="#ffffff" stop-opacity="0.75" />
      <stop offset="1" stop-color="#ffffff" stop-opacity="0" />
    </radialGradient>
    <filter id="shadow" x="-20%" y="-20%" width="140%" height="140%" color-interpolation-filters="sRGB">
      <feDropShadow dx="0" dy="24" stdDeviation="22" flood-color="#0b1220" flood-opacity="0.18" />
    </filter>
  </defs>

  <rect width="2400" height="1350" fill="url(#bg)" />
  <circle cx="720" cy="320" r="720" fill="url(#glow)" />
  <circle cx="1840" cy="1060" r="860" fill="url(#glow2)" />

  <!-- Cards -->
  <g filter="url(#shadow)">
    <rect x="300" y="415" width="520" height="520" rx="84" fill="#ffffff" fill-opacity="0.78" stroke="#0b1220" stroke-opacity="0.06" />
    <rect x="940" y="415" width="520" height="520" rx="84" fill="#ffffff" fill-opacity="0.78" stroke="#0b1220" stroke-opacity="0.06" />
    <rect x="1580" y="415" width="520" height="520" rx="84" fill="#ffffff" fill-opacity="0.78" stroke="#0b1220" stroke-opacity="0.06" />
  </g>

  <!-- Logos (left to right: Dropbox, GitHub, yadm terminal) -->
  <g>
    <!-- Dropbox -->
    <g transform="translate(560 675) translate(-120 -120) scale(10)">
      <path fill="#0061ff" d="M6 1.807L0 5.629l6 3.822 6.001-3.822L6 1.807zM18 1.807l-6 3.822 6 3.822 6-3.822-6-3.822zM0 13.274l6 3.822 6.001-3.822L6 9.452l-6 3.822zM18 9.452l-6 3.822 6 3.822 6-3.822-6-3.822zM6 18.371l6.001 3.822 6-3.822-6-3.822L6 18.371z" />
    </g>

    <!-- GitHub -->
    <g transform="translate(1200 675) translate(-120 -120) scale(10)">
      <path fill="#0b1220" d="M12 .297c-6.63 0-12 5.373-12 12 0 5.303 3.438 9.8 8.205 11.385.6.113.82-.258.82-.577 0-.285-.01-1.04-.015-2.04-3.338.724-4.042-1.61-4.042-1.61C4.422 18.07 3.633 17.7 3.633 17.7c-1.087-.744.084-.729.084-.729 1.205.084 1.838 1.236 1.838 1.236 1.07 1.835 2.809 1.305 3.495.998.108-.776.417-1.305.76-1.605-2.665-.3-5.466-1.332-5.466-5.93 0-1.31.465-2.38 1.235-3.22-.135-.303-.54-1.523.105-3.176 0 0 1.005-.322 3.3 1.23.96-.267 1.98-.399 3-.405 1.02.006 2.04.138 3 .405 2.28-1.552 3.285-1.23 3.285-1.23.645 1.653.24 2.873.12 3.176.765.84 1.23 1.91 1.23 3.22 0 4.61-2.805 5.625-5.475 5.92.42.36.81 1.096.81 2.22 0 1.606-.015 2.896-.015 3.286 0 .315.21.69.825.57C20.565 22.092 24 17.592 24 12.297c0-6.627-5.373-12-12-12" />
    </g>

    <!-- yadm (terminal) -->
    <g>
      <rect x="1684" y="582" width="312" height="186" rx="28" fill="#0b1220" />
      <rect x="1684" y="582" width="312" height="40" rx="28" fill="#111a2d" opacity="0.9" />
      <circle cx="1712" cy="602" r="6" fill="#ff5f57" />
      <circle cx="1732" cy="602" r="6" fill="#febc2e" />
      <circle cx="1752" cy="602" r="6" fill="#28c840" />

      <text x="1724" y="690" font-family="ui-monospace, SFMono-Regular, Menlo, Monaco, Consolas, Liberation Mono, monospace" font-size="34" fill="#cbd5e1">~ $</text>
      <text x="1806" y="690" font-family="ui-monospace, SFMono-Regular, Menlo, Monaco, Consolas, Liberation Mono, monospace" font-size="34" font-weight="700" fill="#a7f3d0">yadm</text>
      <rect x="1894" y="662" width="14" height="32" rx="3" fill="#34d399" />
    </g>
  </g>
</svg>
